<?xml version="1.0" encoding="UTF-8" standalone="no"?>
<!-- Created with Inkscape (http://www.inkscape.org/) -->

<svg
   width="512"
   height="512"
   viewBox="0 0 135.46666 135.46667"
   version="1.1"
   id="svg1"
   xml:space="preserve"
   inkscape:export-filename="sdlogo-dev.png"
   inkscape:export-xdpi="96"
   inkscape:export-ydpi="96"
   inkscape:version="1.3.2 (1:1.3.2+202311252150+091e20ef0f)"
   sodipodi:docname="sd-logo.svg"
   xmlns:inkscape="http://www.inkscape.org/namespaces/inkscape"
   xmlns:sodipodi="http://sodipodi.sourceforge.net/DTD/sodipodi-0.dtd"
   xmlns="http://www.w3.org/2000/svg"
   xmlns:svg="http://www.w3.org/2000/svg"><sodipodi:namedview
     id="namedview1"
     pagecolor="#ffffff"
     bordercolor="#000000"
     borderopacity="0.25"
     inkscape:showpageshadow="2"
     inkscape:pageopacity="0.0"
     inkscape:pagecheckerboard="true"
     inkscape:deskcolor="#d1d1d1"
     inkscape:document-units="mm"
     inkscape:zoom="0.89284396"
     inkscape:cx="598.08883"
     inkscape:cy="143.92213"
     inkscape:window-width="1920"
     inkscape:window-height="1019"
     inkscape:window-x="0"
     inkscape:window-y="31"
     inkscape:window-maximized="1"
     inkscape:current-layer="layer1" /><defs
     id="defs1" /><g
     inkscape:label="Capa 1"
     inkscape:groupmode="layer"
     id="layer1"><path
       id="path8"
       style="fill:#eb2364;fill-opacity:1"
       d="M 73.289583 3.129008 L 73.296301 18.299658 L 73.303019 33.469792 L 77.189087 35.586458 C 79.326257 36.750624 85.106447 39.917852 90.034298 42.624788 L 98.993958 47.546452 L 98.964502 59.025338 C 98.948198 65.338721 98.849739 70.58209 98.745911 70.67734 C 98.568518 70.840073 94.618113 73.063459 79.573437 81.466862 L 73.289583 84.976725 L 73.289583 100.43211 C 73.289583 116.24475 73.305014 116.49998 74.228544 115.65857 C 74.366789 115.53262 75.135052 115.07447 75.935417 114.64055 C 76.73578 114.20663 82.153131 111.19883 87.973958 107.95672 C 93.794786 104.71459 99.807451 101.3726 101.33542 100.52978 C 102.86339 99.686957 108.69746 96.441592 114.3 93.318335 L 124.48646 87.640129 L 124.48646 59.382422 L 124.48646 31.124715 L 117.07812 27.051062 C 113.00355 24.81054 108.18151 22.172717 106.3625 21.188888 C 104.54349 20.205059 97.221139 16.207135 90.090625 12.304675 C 82.960112 8.4022164 76.262837 4.7412898 75.207812 4.1692546 L 73.289583 3.129008 z M 67.85684 10.847917 C 67.566185 10.847917 49.165707 20.804976 46.83125 22.225517 C 46.612968 22.358343 45.30328 23.082996 43.920833 23.835754 C 42.538387 24.588513 39.859477 26.062252 37.967708 27.11049 C 36.07594 28.158728 31.908746 30.455405 28.707292 32.214571 C 25.505837 33.973737 20.624268 36.662369 17.859375 38.188883 L 12.832292 40.963908 L 12.764079 57.476595 L 12.695866 73.989282 L 17.916219 76.748287 C 20.78734 78.265714 24.866218 80.43415 26.980265 81.567114 C 29.094311 82.700077 31.687163 84.0655 32.742187 84.601554 C 34.3238 85.405167 34.666774 85.693814 34.697624 86.245898 C 34.763342 87.422031 34.681682 88.191338 34.469731 88.387887 C 34.356368 88.493011 29.531955 91.054866 23.748938 94.081079 C 13.735848 99.320862 13.228749 99.62213 13.112895 100.39336 C 13.045985 100.83877 12.919278 108.43618 12.831258 117.27656 C 12.743241 126.11694 12.742781 133.35 12.830741 133.35 C 13.073588 133.35 14.368955 132.668 17.859375 130.70262 C 19.605623 129.71934 23.415629 127.60555 26.326042 126.00523 C 32.181605 122.78549 67.31099 103.4001 67.37935 103.3508 C 67.403041 103.33373 67.505357 95.997439 67.606726 87.047917 L 67.791211 70.776042 L 66.37321 70.031384 C 64.419352 69.005402 60.869418 67.093666 52.652083 62.641654 L 45.640625 58.84292 L 45.562077 57.506051 C 45.469649 55.934539 45.303688 56.081314 49.795927 53.750724 C 54.580387 51.268529 61.541832 47.552096 64.684424 45.802372 C 66.281803 44.912987 67.680789 44.185417 67.793278 44.185417 C 67.905763 44.185417 67.997917 36.684469 67.997917 27.516667 C 67.997917 18.348864 67.93444 10.847917 67.85684 10.847917 z M 123.43691 90.02913 C 123.26309 90.014845 123.08598 90.086459 122.8571 90.189327 C 122.20388 90.482911 117.11902 93.351536 113.29903 95.581763 C 112.61254 95.982557 111.039 96.862003 109.80208 97.536165 C 108.56515 98.210327 107.19593 98.97649 106.75937 99.238387 C 106.32282 99.500284 105.15469 100.14226 104.16367 100.66517 C 103.17265 101.18808 100.13655 102.90414 97.416793 104.47838 C 94.697035 106.05261 90.44781 108.44467 87.973958 109.79433 C 85.500107 111.14398 82.821198 112.6306 82.020833 113.09801 C 81.220469 113.56541 79.315467 114.64039 77.7875 115.48701 C 76.259533 116.33362 74.736241 117.19299 74.402694 117.39645 L 73.796529 117.76646 L 74.908089 119.80354 C 75.519552 120.92396 76.942058 123.50749 78.069137 125.54479 C 79.196215 127.58208 80.452231 129.93356 80.860181 130.77031 C 81.26813 131.60705 81.71029 132.29167 81.84255 132.29167 C 81.974809 132.29167 84.182255 131.11937 86.748193 129.68666 C 98.098097 123.34937 102.72732 120.73851 105.56875 119.0718 C 108.87973 117.12967 109.68995 116.66985 119.32708 111.26194 C 122.89234 109.26128 126.58328 107.17823 127.52917 106.63328 C 128.47506 106.08835 129.82159 105.31934 130.52175 104.92383 C 131.2219 104.52833 131.85767 104.04135 131.93407 103.84224 C 132.01048 103.64313 131.12586 101.95579 129.96829 100.0926 C 128.81073 98.229405 127.13087 95.455051 126.23519 93.927083 C 124.45206 90.885184 123.95837 90.071985 123.43691 90.02913 z M 122.89896 91.906018 C 123.34935 92.078848 124.16465 93.591463 123.97383 93.900212 C 123.89823 94.022537 123.17607 94.456809 122.36927 94.865011 C 121.56248 95.273212 120.77447 95.761634 120.61796 95.950216 C 120.40499 96.206828 120.74954 97.043712 121.98687 99.277144 C 124.71969 104.20998 125.66337 105.95861 125.67037 106.10412 C 125.67419 106.18017 125.2306 106.47156 124.6849 106.75162 C 124.1392 107.03169 123.61146 107.29847 123.51236 107.34487 C 123.26357 107.46148 123.29739 107.51575 120.16579 101.94727 C 118.95357 99.791731 117.86216 97.925137 117.74062 97.799198 C 117.52307 97.57376 117.1776 97.717168 114.88033 98.986206 L 113.74086 99.615625 L 113.09542 98.821875 C 112.7406 98.385312 112.4502 97.895623 112.44947 97.733569 C 112.44761 97.314554 122.45276 91.734795 122.89896 91.906018 z M 109.94833 98.954167 C 110.02114 98.954167 110.06735 100.64049 110.05065 102.70122 C 110.0236 106.04593 110.07135 106.47895 110.49661 106.73612 C 110.75863 106.89456 111.81092 107.48094 112.83497 108.0394 C 115.23874 109.35029 117.21135 110.60484 117.20835 110.82166 C 117.20723 110.91563 116.71949 111.27051 116.12469 111.61024 C 114.85942 112.33293 114.41203 112.26473 112.56264 111.06712 C 111.82523 110.58959 110.65992 109.9012 109.97313 109.5375 C 108.31306 108.65841 108.20047 108.87088 108.25127 112.78433 C 108.27347 114.49732 108.24418 115.9423 108.18668 115.9955 C 108.00936 116.15958 99.686268 120.91458 99.576351 120.91458 C 99.519508 120.91458 99.011524 121.20567 98.447738 121.56157 C 97.329 122.2678 97.213793 122.22081 96.374479 120.71925 C 96.192485 120.39365 95.528822 119.20303 94.899634 118.07341 C 94.270444 116.9438 93.020194 114.74958 92.121509 113.19722 C 91.222825 111.64487 90.4875 110.26932 90.4875 110.14005 C 90.4875 109.93998 95.658609 106.85573 100.47965 104.18072 L 101.87233 103.40816 L 102.72861 103.94094 C 104.63711 105.12941 106.93676 106.40544 107.01776 106.32064 C 107.1623 106.1693 107.39635 103.41595 107.40895 101.71886 L 107.42083 100.11792 L 108.61869 99.536043 C 109.27743 99.216006 109.87553 98.954167 109.94833 98.954167 z M 101.63307 106.39041 L 100.75664 106.98365 C 100.27462 107.30997 98.70451 108.22558 97.267448 109.01867 C 95.830384 109.81177 94.592915 110.62113 94.517745 110.81701 C 94.383591 111.16661 94.655787 111.79089 95.861849 113.90312 C 96.194211 114.4852 96.916324 115.76429 97.466919 116.74533 C 98.393297 118.39595 98.511054 118.50674 99.042017 118.22999 C 99.357595 118.0655 101.01461 117.165 102.72448 116.22908 L 105.83333 114.52738 L 105.83333 111.85467 C 105.83333 109.73912 105.74225 109.08128 105.39563 108.69827 C 105.15479 108.43216 104.85121 108.21458 104.72126 108.21458 C 104.5913 108.21458 103.84311 107.80419 103.05883 107.30249 L 101.63307 106.39041 z M 85.95496 112.4567 L 87.329036 114.89945 C 88.08491 116.24312 89.150353 118.11662 89.696851 119.0625 C 92.24785 123.47781 92.604167 124.14141 92.604167 124.48129 C 92.604167 124.84894 89.603459 126.82378 89.044694 126.82378 C 88.878276 126.82378 86.936341 125.31531 84.729712 123.47205 C 80.929607 120.29775 80.16875 119.7813 80.16875 120.3756 C 80.16875 120.63654 82.967491 125.86509 83.997974 127.52917 C 84.313372 128.03849 84.655473 128.59789 84.758134 128.77198 C 84.872592 128.96608 84.56014 129.34986 83.950431 129.76417 C 83.403564 130.13577 82.813831 130.43958 82.6394 130.43958 C 82.464969 130.43958 81.404344 128.80247 80.282955 126.80156 C 79.161566 124.80064 77.81635 122.44916 77.293473 121.57604 C 75.554286 118.67186 75.386118 118.25961 75.86462 118.076 C 76.094402 117.98782 76.941683 117.51926 77.747192 117.0342 C 78.552703 116.54915 79.337708 116.15262 79.491789 116.15312 C 79.645871 116.15362 80.605313 116.8792 81.623958 117.76594 C 83.144257 119.08938 86.207084 121.61521 87.781722 122.84366 C 88.690373 123.55255 88.222979 122.40884 85.913102 118.27288 L 83.390259 113.75585 L 84.672868 113.10627 L 85.95496 112.4567 z " /><circle
       style="fill:#00fedf;fill-opacity:1;stroke-width:0.529167;stroke-linecap:round;paint-order:stroke markers fill"
       id="path9"
       cx="184.58702"
       cy="-34.747139"
       r="20.497643" /><path
       id="circle9"
       style="fill:#2472ed;fill-opacity:1;stroke-width:0.529167;stroke-linecap:round;paint-order:stroke markers fill"
       d="M 184.58698,-6.0409749 A 20.497643,20.497643 0 0 0 164.08952,14.456482 20.497643,20.497643 0 0 0 184.58698,34.954456 20.497643,20.497643 0 0 0 205.08443,14.456482 20.497643,20.497643 0 0 0 184.58698,-6.0409749 Z" /><circle
       style="fill:#9a5cb6;fill-opacity:1;stroke-width:0.529167;stroke-linecap:round;paint-order:stroke markers fill"
       id="circle10"
       cx="184.58702"
       cy="67.73333"
       r="20.497643" /><circle
       style="fill:#eb2364;fill-opacity:1;stroke-width:0.529167;stroke-linecap:round;paint-order:stroke markers fill"
       id="circle11"
       cx="184.58702"
       cy="118.12005"
       r="20.497643" /></g></svg>
