<?xml version="1.0" encoding="UTF-8" standalone="no"?>
<!-- Created with Inkscape (http://www.inkscape.org/) -->

<svg
   width="512"
   height="512"
   viewBox="0 0 135.46666 135.46667"
   version="1.1"
   id="svg1"
   xml:space="preserve"
   xmlns="http://www.w3.org/2000/svg"
   xmlns:svg="http://www.w3.org/2000/svg"><defs
     id="defs1" /><g
     id="layer1"><path
       id="path8"
       style="fill:#ffffff;fill-opacity:1"
       d="m 73.289583,3.129008 0.0067,15.17065 0.0067,15.170134 3.886068,2.116666 c 2.13717,1.164166 7.91736,4.331394 12.845211,7.03833 l 8.95966,4.921664 -0.02946,11.478886 c -0.0163,6.313383 -0.114763,11.556752 -0.218591,11.652002 -0.177393,0.162733 -4.127798,2.386119 -19.172474,10.789522 l -6.283854,3.509863 v 15.455385 c 0,15.81264 0.01543,16.06787 0.938961,15.22646 0.138245,-0.12595 0.906508,-0.5841 1.706873,-1.01802 0.800363,-0.43392 6.217714,-3.44172 12.038541,-6.68383 5.820828,-3.24213 11.833493,-6.58412 13.361462,-7.42694 1.52797,-0.842823 7.36204,-4.088188 12.96458,-7.211445 l 10.18646,-5.678206 V 59.382422 31.124715 l -7.40834,-4.073653 C 113.00355,24.81054 108.18151,22.172717 106.3625,21.188888 104.54349,20.205059 97.221139,16.207135 90.090625,12.304675 82.960112,8.4022164 76.262837,4.7412898 75.207812,4.1692546 Z m -5.432743,7.718909 c -0.290655,0 -18.691133,9.957059 -21.02559,11.3776 -0.218282,0.132826 -1.52797,0.857479 -2.910417,1.610237 -1.382446,0.752759 -4.061356,2.226498 -5.953125,3.274736 -1.891768,1.048238 -6.058962,3.344915 -9.260416,5.104081 -3.201455,1.759166 -8.083024,4.447798 -10.847917,5.974312 l -5.027083,2.775025 -0.06821,16.512687 -0.06821,16.512687 5.220353,2.759005 c 2.871121,1.517427 6.949999,3.685863 9.064046,4.818827 2.114046,1.132963 4.706898,2.498386 5.761922,3.03444 1.581613,0.803613 1.924587,1.09226 1.955437,1.644344 0.06572,1.176133 -0.01594,1.94544 -0.227893,2.141989 -0.113363,0.105124 -4.937776,2.666979 -10.720793,5.693192 -10.01309,5.239783 -10.520189,5.541051 -10.636043,6.312281 -0.06691,0.44541 -0.193617,8.04282 -0.281637,16.8832 -0.08802,8.84038 -0.08848,16.07344 -5.17e-4,16.07344 0.242847,0 1.538214,-0.682 5.028634,-2.64738 1.746248,-0.98328 5.556254,-3.09707 8.466667,-4.69739 5.855563,-3.21974 40.984948,-22.60513 41.053308,-22.65443 0.02369,-0.0171 0.126007,-7.353361 0.227376,-16.302883 L 67.791211,70.776042 66.37321,70.031384 c -1.953858,-1.025982 -5.503792,-2.937718 -13.721127,-7.38973 l -7.011458,-3.798734 -0.07855,-1.336869 c -0.09243,-1.571512 -0.258389,-1.424737 4.23385,-3.755327 4.78446,-2.482195 11.745905,-6.198628 14.888497,-7.948352 1.597379,-0.889385 2.996365,-1.616955 3.108854,-1.616955 0.112485,0 0.204639,-7.500948 0.204639,-16.66875 0,-9.167803 -0.06348,-16.66875 -0.141077,-16.66875 z m 55.58007,79.181213 c -0.17382,-0.01429 -0.35093,0.05733 -0.57981,0.160197 -0.65322,0.293584 -5.73808,3.162209 -9.55807,5.392436 -0.68649,0.400794 -2.26003,1.28024 -3.49695,1.954402 -1.23693,0.674162 -2.60615,1.440325 -3.04271,1.702222 -0.43655,0.261897 -1.60468,0.903873 -2.5957,1.426783 -0.99102,0.52291 -4.02712,2.23897 -6.746877,3.81321 -2.719758,1.57423 -6.968983,3.96629 -9.442835,5.31595 -2.473851,1.34965 -5.15276,2.83627 -5.953125,3.30368 -0.800364,0.4674 -2.705366,1.54238 -4.233333,2.389 -1.527967,0.84661 -3.051259,1.70598 -3.384806,1.90944 l -0.606165,0.37001 1.11156,2.03708 c 0.611463,1.12042 2.033969,3.70395 3.161048,5.74125 1.127078,2.03729 2.383094,4.38877 2.791044,5.22552 0.407949,0.83674 0.850109,1.52136 0.982369,1.52136 0.132259,0 2.339705,-1.1723 4.905643,-2.60501 11.349904,-6.33729 15.979127,-8.94815 18.820557,-10.61486 3.31098,-1.94213 4.1212,-2.40195 13.75833,-7.80986 3.56526,-2.00066 7.2562,-4.08371 8.20209,-4.62866 0.94589,-0.54493 2.29242,-1.31394 2.99258,-1.70945 0.70015,-0.3955 1.33592,-0.88248 1.41232,-1.08159 0.0764,-0.19911 -0.80821,-1.88645 -1.96578,-3.74964 -1.15756,-1.863195 -2.83742,-4.637549 -3.7331,-6.165517 -1.78313,-3.041899 -2.27682,-3.855098 -2.79828,-3.897953 z m -0.53795,1.876888 c 0.45039,0.17283 1.26569,1.685445 1.07487,1.994194 -0.0756,0.122325 -0.79776,0.556597 -1.60456,0.964799 -0.80679,0.408201 -1.5948,0.896623 -1.75131,1.085205 -0.21297,0.256612 0.13158,1.093496 1.36891,3.326928 2.73282,4.932836 3.6765,6.681466 3.6835,6.826976 0.004,0.0761 -0.43977,0.36744 -0.98547,0.6475 -0.5457,0.28007 -1.07344,0.54685 -1.17254,0.59325 -0.24879,0.11661 -0.21497,0.17088 -3.34657,-5.3976 -1.21222,-2.155539 -2.30363,-4.022133 -2.42517,-4.148072 -0.21755,-0.225438 -0.56302,-0.08203 -2.86029,1.187008 l -1.13947,0.629419 -0.64544,-0.79375 c -0.35482,-0.436563 -0.64522,-0.926252 -0.64595,-1.088306 -0.002,-0.419015 10.00329,-5.998774 10.44949,-5.827551 z m -12.95063,7.048149 c 0.0728,0 0.11902,1.686323 0.10232,3.747053 -0.0271,3.34471 0.0207,3.77773 0.44596,4.0349 0.26202,0.15844 1.31431,0.74482 2.33836,1.30328 2.40377,1.31089 4.37638,2.56544 4.37338,2.78226 -10e-4,0.094 -0.48886,0.44885 -1.08366,0.78858 -1.26527,0.72269 -1.71266,0.65449 -3.56205,-0.54312 -0.73741,-0.47753 -1.90272,-1.16592 -2.58951,-1.52962 -1.66007,-0.87909 -1.77266,-0.66662 -1.72186,3.24683 0.0222,1.71299 -0.007,3.15797 -0.0646,3.21117 -0.17732,0.16408 -8.500412,4.91908 -8.610329,4.91908 -0.05684,0 -0.564827,0.29109 -1.128613,0.64699 -1.118738,0.70623 -1.233945,0.65924 -2.073259,-0.84232 -0.181994,-0.3256 -0.845657,-1.51622 -1.474845,-2.64584 -0.62919,-1.12961 -1.87944,-3.32383 -2.778125,-4.87619 -0.898684,-1.55235 -1.634009,-2.9279 -1.634009,-3.05717 0,-0.20007 5.171109,-3.28432 9.99215,-5.95933 l 1.39268,-0.77256 0.85628,0.53278 c 1.9085,1.18847 4.20815,2.4645 4.28915,2.3797 0.14454,-0.15134 0.37859,-2.90469 0.39119,-4.60178 l 0.0119,-1.60094 1.19786,-0.581877 c 0.65874,-0.320037 1.25684,-0.581876 1.32964,-0.581876 z m -8.31526,7.436243 -0.87643,0.59324 c -0.48202,0.32632 -2.05213,1.24193 -3.489192,2.03502 -1.437064,0.7931 -2.674533,1.60246 -2.749703,1.79834 -0.134154,0.3496 0.138042,0.97388 1.344104,3.08611 0.332362,0.58208 1.054475,1.86117 1.60507,2.84221 0.926378,1.65062 1.044135,1.76141 1.575098,1.48466 0.315578,-0.16449 1.972593,-1.06499 3.682463,-2.00091 l 3.10885,-1.7017 v -2.67271 c 0,-2.11555 -0.0911,-2.77339 -0.4377,-3.1564 -0.24084,-0.26611 -0.54442,-0.48369 -0.67437,-0.48369 -0.12996,0 -0.87815,-0.41039 -1.66243,-0.91209 z m -15.67811,6.06629 1.374076,2.44275 c 0.755874,1.34367 1.821317,3.21717 2.367815,4.16305 2.550999,4.41531 2.907316,5.07891 2.907316,5.41879 0,0.36765 -3.000708,2.34249 -3.559473,2.34249 -0.166418,0 -2.108353,-1.50847 -4.314982,-3.35173 -3.800105,-3.1743 -4.560962,-3.69075 -4.560962,-3.09645 0,0.26094 2.798741,5.48949 3.829224,7.15357 0.315398,0.50932 0.657499,1.06872 0.76016,1.24281 0.114458,0.1941 -0.197994,0.57788 -0.807703,0.99219 -0.546867,0.3716 -1.1366,0.67541 -1.311031,0.67541 -0.174431,0 -1.235056,-1.63711 -2.356445,-3.63802 -1.121389,-2.00092 -2.466605,-4.3524 -2.989482,-5.22552 -1.739187,-2.90418 -1.907355,-3.31643 -1.428853,-3.50004 0.229782,-0.0882 1.077063,-0.55674 1.882572,-1.0418 0.805511,-0.48505 1.590516,-0.88158 1.744597,-0.88108 0.154082,5e-4 1.113524,0.72608 2.132169,1.61282 1.520299,1.32344 4.583126,3.84927 6.157764,5.07772 0.908651,0.70889 0.441257,-0.43482 -1.86862,-4.57078 l -2.522843,-4.51703 1.282609,-0.64958 z" /></g></svg>
